<svg xmlns="http://www.w3.org/2000/svg" width="1160" height="1160">
	<path
		d="M440 80h40v40h-40zM480 80h40v40h-40zM600 80h40v40h-40zM720 80h40v40h-40zM400 120h40v40h-40zM440 120h40v40h-40zM480 120h40v40h-40zM520 120h40v40h-40zM560 120h40v40h-40zM400 160h40v40h-40zM520 160h40v40h-40zM560 160h40v40h-40zM640 160h40v40h-40zM400 200h40v40h-40zM440 200h40v40h-40zM560 200h40v40h-40zM600 200h40v40h-40zM640 200h40v40h-40zM720 200h40v40h-40zM560 240h40v40h-40zM600 240h40v40h-40zM720 240h40v40h-40zM440 280h40v40h-40zM480 280h40v40h-40zM520 280h40v40h-40zM560 280h40v40h-40zM600 280h40v40h-40zM640 280h40v40h-40zM400 320h40v40h-40zM480 320h40v40h-40zM560 320h40v40h-40zM640 320h40v40h-40zM720 320h40v40h-40zM400 360h40v40h-40zM440 360h40v40h-40zM720 360h40v40h-40zM80 400h40v40H80zM320 400h40v40h-40zM400 400h40v40h-40zM440 400h40v40h-40zM480 400h40v40h-40zM520 400h40v40h-40zM560 400h40v40h-40zM600 400h40v40h-40zM640 400h40v40h-40zM760 400h40v40h-40zM800 400h40v40h-40zM920 400h40v40h-40zM960 400h40v40h-40zM1000 400h40v40h-40zM80 440h40v40H80zM160 440h40v40h-40zM280 440h40v40h-40zM440 440h40v40h-40zM560 440h40v40h-40zM600 440h40v40h-40zM640 440h40v40h-40zM680 440h40v40h-40zM840 440h40v40h-40zM880 440h40v40h-40zM920 440h40v40h-40zM960 440h40v40h-40zM1000 440h40v40h-40zM320 480h40v40h-40zM440 480h40v40h-40zM480 480h40v40h-40zM520 480h40v40h-40zM680 480h40v40h-40zM720 480h40v40h-40zM760 480h40v40h-40zM800 480h40v40h-40zM840 480h40v40h-40zM920 480h40v40h-40zM1000 480h40v40h-40zM1040 480h40v40h-40zM120 520h40v40h-40zM160 520h40v40h-40zM360 520h40v40h-40zM400 520h40v40h-40zM440 520h40v40h-40zM480 520h40v40h-40zM520 520h40v40h-40zM560 520h40v40h-40zM760 520h40v40h-40zM800 520h40v40h-40zM840 520h40v40h-40zM880 520h40v40h-40zM920 520h40v40h-40zM1040 520h40v40h-40zM200 560h40v40h-40zM240 560h40v40h-40zM280 560h40v40h-40zM320 560h40v40h-40zM400 560h40v40h-40zM480 560h40v40h-40zM560 560h40v40h-40zM680 560h40v40h-40zM720 560h40v40h-40zM800 560h40v40h-40zM840 560h40v40h-40zM1040 560h40v40h-40zM80 600h40v40H80zM120 600h40v40h-40zM200 600h40v40h-40zM640 600h40v40h-40zM680 600h40v40h-40zM720 600h40v40h-40zM840 600h40v40h-40zM1000 600h40v40h-40zM80 640h40v40H80zM160 640h40v40h-40zM200 640h40v40h-40zM280 640h40v40h-40zM320 640h40v40h-40zM400 640h40v40h-40zM440 640h40v40h-40zM520 640h40v40h-40zM560 640h40v40h-40zM640 640h40v40h-40zM680 640h40v40h-40zM760 640h40v40h-40zM840 640h40v40h-40zM880 640h40v40h-40zM920 640h40v40h-40zM1000 640h40v40h-40zM1040 640h40v40h-40zM80 680h40v40H80zM160 680h40v40h-40zM280 680h40v40h-40zM480 680h40v40h-40zM520 680h40v40h-40zM680 680h40v40h-40zM840 680h40v40h-40zM920 680h40v40h-40zM960 680h40v40h-40zM1040 680h40v40h-40zM80 720h40v40H80zM160 720h40v40h-40zM240 720h40v40h-40zM320 720h40v40h-40zM360 720h40v40h-40zM520 720h40v40h-40zM720 720h40v40h-40zM760 720h40v40h-40zM800 720h40v40h-40zM840 720h40v40h-40zM880 720h40v40h-40zM960 720h40v40h-40zM400 760h40v40h-40zM480 760h40v40h-40zM560 760h40v40h-40zM600 760h40v40h-40zM720 760h40v40h-40zM880 760h40v40h-40zM440 800h40v40h-40zM480 800h40v40h-40zM520 800h40v40h-40zM720 800h40v40h-40zM800 800h40v40h-40zM880 800h40v40h-40zM1040 800h40v40h-40zM440 840h40v40h-40zM560 840h40v40h-40zM600 840h40v40h-40zM720 840h40v40h-40zM880 840h40v40h-40zM1000 840h40v40h-40zM1040 840h40v40h-40zM480 880h40v40h-40zM560 880h40v40h-40zM640 880h40v40h-40zM680 880h40v40h-40zM720 880h40v40h-40zM760 880h40v40h-40zM800 880h40v40h-40zM840 880h40v40h-40zM880 880h40v40h-40zM960 880h40v40h-40zM1000 880h40v40h-40zM1040 880h40v40h-40zM440 920h40v40h-40zM480 920h40v40h-40zM640 920h40v40h-40zM680 920h40v40h-40zM720 920h40v40h-40zM760 920h40v40h-40zM800 920h40v40h-40zM1000 920h40v40h-40zM1040 920h40v40h-40zM480 960h40v40h-40zM520 960h40v40h-40zM560 960h40v40h-40zM680 960h40v40h-40zM760 960h40v40h-40zM920 960h40v40h-40zM960 960h40v40h-40zM1040 960h40v40h-40zM440 1000h40v40h-40zM520 1000h40v40h-40zM640 1000h40v40h-40zM720 1000h40v40h-40zM840 1000h40v40h-40zM880 1000h40v40h-40zM1040 1000h40v40h-40zM400 1040h40v40h-40zM440 1040h40v40h-40zM600 1040h40v40h-40zM640 1040h40v40h-40zM720 1040h40v40h-40zM760 1040h40v40h-40zM920 1040h40v40h-40zM1040 1040h40v40h-40z" />
	<path fill="none" d="M122 122h196v196H122z" />
	<path d="M318 80H80v280h280V80h-42zm0 238H122V122h196v196z" />
	<path fill="none" d="M842 122h196v196H842z" />
	<path d="M1038 80H800v280h280V80h-42zm0 238H842V122h196v196z" />
	<path fill="none" d="M122 842h196v196H122z" />
	<path d="M318 800H80v280h280V800h-42zm0 238H122V842h196v196z" />
	<g>
		<path d="M160 160h120v120H160z" />
	</g>
	<g>
		<path d="M880 160h120v120H880z" />
	</g>
	<g>
		<path d="M160 880h120v120H160z" />
	</g>
</svg>