<?xml version="1.0" standalone="no"?>
<!DOCTYPE svg PUBLIC "-//W3C//DTD SVG 20010904//EN"
 "http://www.w3.org/TR/2001/REC-SVG-20010904/DTD/svg10.dtd">
<svg version="1.0" xmlns="http://www.w3.org/2000/svg"
 width="700.000000pt" height="700.000000pt" viewBox="0 0 700.000000 700.000000"
 preserveAspectRatio="xMidYMid meet">
<metadata>
Created by potrace 1.14, written by Peter Selinger 2001-2017
</metadata>
<g transform="translate(0.000000,700.000000) scale(0.100000,-0.100000)"
fill="#000000" stroke="none">
<path d="M5123 6083 c-216 -42 -424 -129 -598 -251 -137 -96 -259 -215 -364
-357 -57 -76 -141 -208 -141 -220 0 -2 -13 -32 -28 -67 -38 -83 -75 -193 -73
-215 0 -2 -5 -17 -10 -35 -11 -38 -23 -159 -23 -238 0 -127 31 -282 82 -406
l20 -51 -1464 -1464 c-909 -908 -1473 -1479 -1486 -1504 -14 -26 -21 -59 -22
-97 -1 -151 171 -261 304 -194 28 14 397 377 1114 1093 l1072 1073 1065 -1066
c585 -585 1083 -1076 1107 -1090 47 -29 116 -37 170 -21 79 25 151 120 152
201 0 99 52 43 -1102 1197 -593 593 -1078 1082 -1078 1086 0 4 108 116 240
247 l240 240 62 -22 c122 -41 176 -52 300 -57 280 -11 594 98 835 292 96 76
227 210 313 320 69 88 177 284 223 408 153 403 109 733 -130 977 -206 212
-458 284 -780 221z"/>
<path d="M1179 5953 c-64 -21 -104 -66 -153 -168 -62 -129 -108 -280 -124
-410 -8 -65 -8 -265 0 -336 27 -219 129 -453 276 -629 50 -60 956 -970 965
-970 3 0 200 194 437 432 l432 431 -819 818 c-622 621 -826 819 -853 828 -58
18 -114 19 -161 4z"/>
</g>
</svg>
